<svg width="298" height="298" viewBox="0 0 298 298" fill="none" xmlns="http://www.w3.org/2000/svg">
<path fill-rule="evenodd" clip-rule="evenodd" d="M55.944 148.999C39.2251 121.963 30.2764 89.9744 36.2892 57.5626C38.3415 46.5071 47.212 37.9204 58.3192 36.1701C68.2577 34.6043 75.4408 33.82 89.5174 34.9902C84.444 43.4104 81.4425 51.8098 78.2871 59.9728C71.2565 59.7184 64.0944 61.1248 61.8255 61.8238C56.1131 82.9395 63.4849 119.091 85.7554 148.999H55.944Z" fill="#0056C1"/>
<path fill-rule="evenodd" clip-rule="evenodd" d="M83.198 83.1994C90.4929 52.2598 106.785 23.3123 133.956 4.6473C143.223 -1.7207 155.569 -1.51938 164.661 5.09746C172.794 11.0167 178.428 15.5407 187.555 26.3223C178.013 28.6891 169.952 32.5071 161.949 36.0469C157.158 30.8952 151.098 26.8255 148.999 25.7155C130.029 36.6075 109.678 67.3836 104.279 104.28L83.198 83.1994Z" fill="#0056C1"/>
<path fill-rule="evenodd" clip-rule="evenodd" d="M148.999 55.9428C176.035 39.2239 208.025 30.2751 240.435 36.288C251.491 38.3403 260.079 47.2108 261.829 58.3181C263.393 68.2566 264.179 75.4397 263.009 89.5163C254.587 84.4429 246.189 81.4414 238.025 78.286C238.281 71.2554 236.874 64.0933 236.174 61.8243C215.058 56.112 178.908 63.4838 148.999 85.7543V55.9428Z" fill="#0056C1"/>
<path fill-rule="evenodd" clip-rule="evenodd" d="M214.801 83.1985C245.741 90.4934 274.688 106.786 293.353 133.957C299.721 143.224 299.52 155.57 292.903 164.661C286.984 172.795 282.46 178.429 271.678 187.555C269.311 178.012 265.493 169.953 261.953 161.949C267.105 157.157 271.175 151.099 272.285 148.999C261.393 130.029 230.617 109.678 193.72 104.279L214.801 83.1985Z" fill="#0056C1"/>
<path fill-rule="evenodd" clip-rule="evenodd" d="M242.055 148.998C258.774 176.034 267.723 208.022 261.709 240.434C259.658 251.489 250.787 260.078 239.68 261.828C229.742 263.392 222.559 264.177 208.482 263.006C213.555 254.586 216.557 246.187 219.712 238.024C226.743 238.28 233.904 236.873 236.174 236.173C241.886 215.057 234.514 178.905 212.243 148.998H242.055Z" fill="#0056C1"/>
<path fill-rule="evenodd" clip-rule="evenodd" d="M214.8 214.801C207.505 245.741 191.212 274.688 164.042 293.353C154.774 299.72 142.428 299.52 133.337 292.903C125.203 286.984 119.569 282.46 110.443 271.678C119.985 269.31 128.046 265.493 136.049 261.954C140.84 267.104 146.899 271.174 148.999 272.284C167.969 261.392 188.32 230.617 193.719 193.72L214.8 214.801Z" fill="#0056C1"/>
<path fill-rule="evenodd" clip-rule="evenodd" d="M148.999 242.057C121.962 258.776 89.9727 267.724 57.5624 261.71C46.5069 259.659 37.9189 250.787 36.1699 239.68C34.6042 229.743 33.8199 222.56 34.9886 208.482C43.4103 213.555 51.8096 216.557 59.9726 219.714C59.7168 226.744 61.1246 233.905 61.8236 236.174C82.9393 241.888 119.091 234.514 148.999 212.244V242.057Z" fill="#0056C1"/>
<path fill-rule="evenodd" clip-rule="evenodd" d="M83.1993 214.802C52.2597 207.507 23.3123 191.215 4.64729 164.043C-1.7207 154.776 -1.51938 142.431 5.09745 133.339C11.0167 125.206 15.5407 119.571 26.3222 110.445C28.689 119.986 32.507 128.047 36.0468 136.051C30.8951 140.842 26.8255 146.901 25.7155 149.001C36.6074 167.971 67.3835 188.322 104.28 193.722L83.1993 214.802Z" fill="#0056C1"/>
</svg>
